<svg width="375" height="812" viewBox="0 0 375 812" fill="none" xmlns="http://www.w3.org/2000/svg">
<path d="M273.283 731.455C276.161 734.328 280.827 734.331 283.661 731.415C352.777 660.273 398.759 569.847 415.462 472.008C432.578 371.751 418.104 268.657 374.041 176.97C329.977 85.2835 258.497 9.52766 169.477 -39.832C80.4564 -89.1917 -21.7118 -109.719 -122.914 -98.5786C-224.116 -87.4381 -319.358 -45.1795 -395.483 22.3596C-471.607 89.8986 -524.857 179.385 -547.876 278.456C-570.896 377.528 -562.549 481.296 -523.988 575.424C-486.358 667.282 -421.766 745.537 -338.799 799.938C-335.399 802.167 -330.845 801.148 -328.664 797.717C-326.479 794.281 -327.5 789.729 -330.904 787.495C-411.288 734.731 -473.869 658.875 -510.341 569.846C-547.744 478.541 -555.841 377.886 -533.512 281.787C-511.183 185.687 -459.531 98.8857 -385.69 33.3728C-311.85 -32.1401 -219.465 -73.1309 -121.299 -83.9372C-23.1326 -94.7435 75.9705 -74.8319 162.32 -26.953C248.67 20.9258 318.005 94.409 360.747 183.345C403.489 272.282 417.529 372.282 400.926 469.532C384.737 564.357 340.195 652.005 273.244 720.987C270.407 723.909 270.402 728.576 273.283 731.455Z" fill="#F7F9FC"/>
<path d="M286.081 716.675C288.717 719.317 293.004 719.319 295.6 716.637C371.666 638.069 416.629 534.344 421.929 424.839C427.339 313.077 391.045 203.3 320.119 116.892C249.193 30.4847 148.714 -26.3637 38.2582 -42.5782C-72.1981 -58.7926 -184.721 -33.2118 -277.389 29.1808C-370.058 91.5734 -436.234 186.309 -463.027 294.932C-489.82 403.555 -475.31 518.285 -422.324 616.771C-369.337 715.257 -281.67 790.446 -176.401 827.689C-73.2522 864.181 39.5576 861.681 140.891 820.805C144.346 819.412 145.961 815.453 144.521 812.017C143.078 808.573 139.114 806.96 135.65 808.355C37.4108 847.924 -71.9308 850.321 -171.914 814.948C-274.026 778.823 -359.063 705.89 -410.459 610.358C-461.856 514.827 -475.931 403.538 -449.942 298.174C-423.953 192.81 -359.761 100.917 -269.873 40.3959C-179.985 -20.1249 -70.8377 -44.9383 36.3049 -29.2103C143.447 -13.4823 240.912 41.6607 309.71 125.476C378.508 209.291 413.713 315.776 408.466 424.185C403.328 530.347 359.757 630.909 286.046 707.105C283.459 709.779 283.453 714.041 286.081 716.675Z" fill="#F7F9FC"/>
<path d="M294.569 695.604C297.032 698.059 301.021 698.061 303.447 695.57C363.856 633.53 403.625 554.376 417.243 468.89C431.19 381.334 416.989 291.625 376.672 212.604C336.355 133.582 271.99 69.3014 192.79 28.9625C113.59 -11.3765 23.6166 -25.7051 -64.2505 -11.9722C-152.118 1.76074 -233.373 42.8511 -296.385 105.417C-359.397 167.982 -400.935 248.815 -415.052 336.344C-429.169 423.872 -415.142 513.609 -374.978 592.708C-335.762 669.939 -273.593 733.162 -197.03 773.795C-193.959 775.425 -190.164 774.202 -188.572 771.112C-186.975 768.01 -188.203 764.205 -191.284 762.568C-265.46 723.15 -325.692 661.866 -363.698 587.017C-402.656 510.291 -416.263 423.247 -402.569 338.344C-388.876 253.441 -348.584 175.033 -287.463 114.345C-226.341 53.6561 -147.523 13.7984 -62.2921 0.477509C22.939 -12.8434 110.213 1.05532 187.037 40.1841C263.861 79.3129 326.296 141.666 365.403 218.316C404.51 294.966 418.286 381.985 404.757 466.914C391.56 549.76 353.041 626.475 294.535 686.629C292.099 689.133 292.095 693.138 294.569 695.604Z" fill="#F7F9FC"/>
<path d="M361.35 621.338C364.243 622.561 367.585 621.206 368.764 618.293C398.317 545.276 404.426 464.81 386.162 388.084C367.458 309.512 324.17 238.967 262.604 186.725C201.037 134.482 124.409 103.272 43.879 97.6385C-34.7581 92.1379 -113.104 111.308 -180.277 152.403C-182.956 154.042 -183.747 157.56 -182.069 160.215C-180.391 162.871 -176.879 163.658 -174.198 162.019C-109.073 122.219 -33.1347 103.656 43.086 108.988C121.2 114.452 195.53 144.726 255.249 195.402C314.968 246.077 356.957 314.505 375.1 390.72C392.804 465.09 386.899 543.083 358.287 613.869C357.11 616.781 358.459 620.115 361.35 621.338Z" fill="#F7F9FC"/>
<path d="M330.587 660.692C333.277 661.829 336.384 660.57 337.48 657.862C356.576 610.679 365.243 559.896 362.858 509.005C360.391 456.352 346.156 404.921 321.201 358.499C296.246 312.076 261.206 271.842 218.659 240.757C177.536 210.713 130.412 189.955 80.5397 179.886C77.6768 179.308 74.9141 181.208 74.3796 184.08C73.8453 186.951 75.7394 189.707 78.6006 190.286C126.92 200.064 172.577 220.188 212.424 249.3C253.695 279.452 287.684 318.479 311.89 363.509C336.097 408.539 349.905 458.427 352.298 509.501C354.608 558.813 346.222 608.021 327.738 653.748C326.644 656.455 327.898 659.555 330.587 660.692Z" fill="#F7F9FC"/>
<path d="M275.38 732.909C278.269 736.237 283.313 736.597 286.595 733.657C349.694 677.139 398.416 606.326 428.654 527.093C459.841 445.374 470.404 357.22 459.408 270.44C448.411 183.66 416.194 100.933 365.61 29.5869C315.026 -41.7594 247.637 -99.5228 169.412 -138.587C91.1874 -177.651 4.54088 -196.809 -82.852 -194.365C-170.245 -191.922 -255.687 -167.951 -331.609 -124.577C-407.531 -81.2023 -471.591 -19.7632 -518.113 54.2985C-563.22 126.108 -590.491 207.635 -597.7 292.065C-598.075 296.454 -594.757 300.268 -590.363 300.577C-585.97 300.886 -582.165 297.575 -581.789 293.187C-574.765 211.374 -548.322 132.378 -504.609 62.7899C-459.483 -9.04998 -397.345 -68.6459 -323.701 -110.719C-250.056 -152.792 -167.178 -176.044 -82.4065 -178.414C2.36469 -180.785 86.4118 -162.201 162.29 -124.309C238.168 -86.4168 303.536 -30.3863 352.602 38.8196C401.668 108.026 432.919 188.271 443.585 272.447C454.252 356.623 444.006 442.133 413.754 521.401C384.451 598.184 337.252 666.816 276.13 721.613C272.851 724.552 272.493 729.584 275.38 732.909Z" fill="#F7F9FC"/>
<path d="M290.328 719.433C293.054 721.676 297.086 721.286 299.287 718.524C335.681 672.86 362.32 620.179 377.525 563.743C393.285 505.247 396.398 444.062 386.658 384.267C376.918 324.473 354.548 267.443 321.04 216.982C287.532 166.52 243.657 123.786 192.339 91.6306C141.021 59.4748 83.4411 38.6358 23.4384 30.5033C-36.5643 22.3708 -97.6103 27.1318 -155.629 44.4687C-213.647 61.8056 -267.305 91.32 -313.022 131.044C-357.132 169.37 -392.873 216.35 -418.045 269.048C-419.567 272.233 -418.159 276.029 -414.953 277.503C-411.746 278.978 -407.955 277.569 -406.431 274.384C-382.019 223.339 -347.381 177.83 -304.644 140.697C-260.298 102.165 -208.25 73.5361 -151.972 56.7192C-95.6942 39.9024 -36.4795 35.2843 21.7231 43.1728C79.9257 51.0613 135.778 71.2751 185.557 102.466C235.335 133.657 277.894 175.109 310.397 224.057C342.9 273.004 364.598 328.323 374.046 386.324C383.494 444.325 380.474 503.674 365.187 560.415C350.454 615.098 324.655 666.146 289.413 710.406C287.215 713.167 287.603 717.192 290.328 719.433Z" fill="#F7F9FC"/>
</svg>
