<svg width="50" height="49" viewBox="0 0 50 49" fill="none" xmlns="http://www.w3.org/2000/svg">
<rect x="0.587402" width="48.8252" height="48.8252" rx="12" fill="#005CEE"/>
<path d="M34.6285 36.6879C34.8666 36.9261 35.2537 36.9269 35.4821 36.6794C37.4797 34.5153 38.8108 31.8149 39.3073 28.903C39.8381 25.7905 39.3893 22.5899 38.0228 19.7435C36.6563 16.8971 34.4396 14.5452 31.6789 13.0128C28.9182 11.4804 25.7498 10.8432 22.6114 11.189C19.4729 11.5349 16.5193 12.8468 14.1585 14.9436C11.7978 17.0403 10.1464 19.8185 9.43255 22.8942C8.71867 25.9699 8.97753 29.1913 10.1734 32.1136C11.2921 34.8474 13.1792 37.1932 15.6002 38.8704C15.877 39.0622 16.2546 38.9771 16.4351 38.6929C16.6157 38.4086 16.5307 38.0329 16.2546 37.8402C14.0466 36.299 12.325 34.1518 11.302 31.6517C10.2018 28.9633 9.96366 25.9995 10.6204 23.1699C11.2772 20.3402 12.7965 17.7843 14.9683 15.8553C17.1402 13.9263 19.8575 12.7193 22.7449 12.4011C25.6323 12.0829 28.5473 12.6692 31.0871 14.079C33.6269 15.4888 35.6663 17.6525 36.9234 20.2713C38.1806 22.89 38.5936 25.8345 38.1052 28.698C37.6511 31.3608 36.4385 33.8314 34.619 35.8164C34.3915 36.0646 34.3904 36.4498 34.6285 36.6879Z" fill="white"/>
<path d="M35.0483 36.2365C35.266 36.4542 35.6199 36.4549 35.8287 36.2287C38.0431 33.8298 39.3493 30.724 39.5081 27.4513C39.6758 23.9927 38.5501 20.5955 36.3501 17.9215C34.1501 15.2475 31.0335 13.4882 27.6073 12.9865C24.1812 12.4847 20.691 13.2763 17.8166 15.2071C14.9422 17.138 12.8895 20.0697 12.0585 23.4312C11.2274 26.7926 11.6775 30.3431 13.321 33.3909C14.9645 36.4387 17.6838 38.7655 20.949 39.918C24.0387 41.0086 27.4078 40.9738 30.466 39.831C30.7544 39.7233 30.8876 39.3954 30.7684 39.1115C30.6491 38.8276 30.3227 38.6954 30.034 38.8022C27.2316 39.8383 24.1486 39.865 21.3201 38.8667C18.3161 37.8063 15.8144 35.6657 14.3023 32.8617C12.7903 30.0577 12.3762 26.7913 13.1408 23.6987C13.9054 20.6062 15.7938 17.909 18.4383 16.1326C21.0827 14.3563 24.2937 13.628 27.4458 14.0896C30.5978 14.5513 33.4651 16.1698 35.4891 18.6298C37.5131 21.0899 38.5488 24.2154 38.3944 27.3973C38.2491 30.3932 37.0586 33.2372 35.0396 35.4397C34.8316 35.6666 34.8306 36.0188 35.0483 36.2365Z" fill="white"/>
<path d="M35.3279 35.6452C35.532 35.8493 35.8638 35.85 36.0595 35.6379C37.8062 33.7456 38.9576 31.3759 39.3626 28.8249C39.7951 26.1016 39.3548 23.3112 38.1048 20.8533C36.8548 18.3955 34.8593 16.396 32.4038 15.1413C29.9484 13.8866 27.1589 13.441 24.4347 13.8681C21.7105 14.2953 19.1914 15.5733 17.2378 17.5194C15.2842 19.4654 13.9964 21.9797 13.5587 24.7022C13.121 27.4247 13.5559 30.2159 14.8011 32.6761C15.9675 34.9808 17.789 36.8844 20.031 38.1512C20.2823 38.2932 20.5979 38.191 20.7298 37.9342C20.8616 37.6775 20.7596 37.3634 20.5088 37.2206C18.4628 36.0551 16.8005 34.3119 15.7337 32.2041C14.5881 29.9407 14.188 27.3728 14.5907 24.8681C14.9934 22.3634 16.1781 20.0503 17.9754 18.2599C19.7727 16.4695 22.0904 15.2937 24.5966 14.9007C27.1029 14.5078 29.6692 14.9178 31.9282 16.0721C34.1873 17.2264 36.0232 19.0659 37.1731 21.3272C38.3231 23.5884 38.7281 26.1555 38.3303 28.661C37.9599 30.9941 36.9109 33.1624 35.3198 34.8982C35.1248 35.111 35.1238 35.4411 35.3279 35.6452Z" fill="white"/>
<path d="M37.3683 33.4226C37.6076 33.5237 37.8844 33.412 37.9759 33.1689C38.7999 30.9784 38.9526 28.588 38.4088 26.3045C37.8285 23.8682 36.4855 21.6808 34.5755 20.0609C32.6655 18.441 30.2881 17.4732 27.7898 17.2986C25.4481 17.1349 23.1147 17.6759 21.0882 18.8465C20.8633 18.9764 20.7982 19.2678 20.9371 19.4874C21.0759 19.707 21.366 19.7715 21.5914 19.6423C23.4481 18.5784 25.5824 18.0873 27.7242 18.237C30.0227 18.3977 32.2098 19.288 33.967 20.7783C35.7243 22.2686 36.9598 24.2811 37.4936 26.5225C37.9911 28.6111 37.8551 30.7968 37.1086 32.8024C37.018 33.0459 37.129 33.3215 37.3683 33.4226Z" fill="white"/>
<path d="M19.5873 20.4888C19.4174 20.2923 19.1197 20.27 18.9301 20.4476C18.2689 21.0671 17.6814 21.7609 17.1795 22.5153C17.0356 22.7316 17.1067 23.0216 17.3286 23.1567C17.5504 23.2919 17.839 23.2209 17.9836 23.0051C18.4338 22.3336 18.9578 21.7147 19.5459 21.1599C19.7348 20.9816 19.7572 20.6853 19.5873 20.4888Z" fill="white"/>
<path d="M36.4326 34.651C36.6551 34.745 36.9125 34.6411 36.9976 34.4151C37.5205 33.0247 37.7552 31.5408 37.6855 30.054C37.609 28.4213 37.1674 26.8266 36.3932 25.3872C35.619 23.9478 34.5319 22.7002 33.2119 21.7364C32.0098 20.8586 30.6423 20.2364 29.194 19.9063C28.9585 19.8526 28.73 20.0102 28.6857 20.2476C28.6415 20.4851 28.7985 20.7124 29.0338 20.7669C30.3536 21.0726 31.5996 21.642 32.6961 22.4427C33.9105 23.3295 34.9106 24.4772 35.6229 25.8015C36.3351 27.1258 36.7414 28.5929 36.8119 30.0949C36.8754 31.4512 36.6637 32.8047 36.1912 34.0744C36.1069 34.3007 36.2101 34.557 36.4326 34.651Z" fill="white"/>
<path d="M34.7554 36.7476C34.9645 36.9883 35.3298 37.0147 35.5631 36.7974C37.4027 35.083 38.828 32.9688 39.7268 30.6148C40.6943 28.0809 41.0221 25.3475 40.6809 22.6567C40.3397 19.9659 39.3402 17.4008 37.7709 15.1886C36.2016 12.9763 34.1109 11.1852 31.6841 9.97396C29.2572 8.7627 26.5691 8.16865 23.8578 8.24442C21.1466 8.3202 18.4958 9.06346 16.1404 10.4084C13.785 11.7533 11.7976 13.6583 10.3543 15.9548C9.0135 18.0881 8.18069 20.4981 7.91656 22.9988C7.88307 23.3158 8.12379 23.592 8.44182 23.6143C8.75985 23.6367 9.03468 23.3968 9.069 23.0799C9.31928 20.7686 10.092 18.5417 11.3318 16.5691C12.6741 14.4334 14.5223 12.6617 16.7129 11.411C18.9034 10.1602 21.3686 9.46897 23.8901 9.3985C26.4116 9.32803 28.9115 9.8805 31.1685 11.007C33.4255 12.1334 35.3698 13.7992 36.8293 15.8565C38.2887 17.9139 39.2183 20.2995 39.5355 22.8019C39.8528 25.3044 39.548 27.8465 38.6482 30.203C37.8171 32.3795 36.5021 34.3357 34.8055 35.9251C34.5728 36.1431 34.5463 36.5069 34.7554 36.7476Z" fill="white"/>
<path d="M35.1802 36.369C35.4057 36.5544 35.7397 36.5225 35.916 36.2898C36.9416 34.9355 37.6975 33.3947 38.1406 31.7512C38.6295 29.9374 38.7261 28.0403 38.4239 26.1862C38.1218 24.3321 37.4277 22.5638 36.3882 20.9991C35.3486 19.4345 33.9874 18.1094 32.3954 17.1124C30.8033 16.1153 29.0169 15.4691 27.1554 15.217C25.2939 14.9648 23.4 15.1124 21.6 15.65C19.8 16.1876 18.1354 17.1027 16.717 18.3344C15.4318 19.4505 14.3756 20.8033 13.605 22.3173C13.4726 22.5774 13.5897 22.8918 13.855 23.0137C14.1202 23.1357 14.433 23.0189 14.5664 22.7592C15.2737 21.3815 16.2385 20.1502 17.4102 19.1326C18.7151 17.9995 20.2466 17.1575 21.9025 16.6629C23.5585 16.1684 25.3009 16.0326 27.0135 16.2646C28.7261 16.4966 30.3695 17.091 31.8343 18.0083C33.299 18.9256 34.5513 20.1447 35.5077 21.5842C36.4641 23.0237 37.1025 24.6505 37.3805 26.3563C37.6585 28.062 37.5697 29.8074 37.1198 31.4761C36.7159 32.9744 36.0293 34.38 35.0987 35.6178C34.9233 35.8511 34.9548 36.1836 35.1802 36.369Z" fill="white"/>
</svg>
